<svg width="60" height="60" viewBox="0 0 60 60" fill="none" xmlns="http://www.w3.org/2000/svg">
<g clip-path="url(#clip0_25_64)">
<path fill-rule="evenodd" clip-rule="evenodd" d="M14.1897 0.0110409C14.1897 0.0381487 14.4456 0.727699 14.7583 1.5432C16.3027 5.57 17.0087 9.40147 17.2539 15.0854C17.3583 17.5083 17.3595 23.3763 17.2565 28.227C17.1312 34.1251 17.3462 36.175 18.3537 38.6887C19.525 41.6109 22.0274 43.7953 24.9528 44.4494L25.2316 44.5118L24.7252 43.8387C23.9921 42.864 23.5952 41.7638 23.3806 40.1108C23.2415 39.0395 23.2568 35.9435 23.4209 31.9891C23.7583 23.8561 23.7777 20.6779 23.5048 18.1775C23.02 13.7344 21.7044 9.84736 19.4253 6.12494C18.6462 4.85252 16.3062 1.90797 15.35 0.997024C14.5893 0.272225 14.1897 -0.0672934 14.1897 0.0110409ZM34.1641 41.0767C31.5599 41.3982 29.3373 42.4442 26.7112 44.5842C25.7518 45.366 25.6023 45.5017 23.1081 47.854C19.9264 50.8547 17.7223 52.3567 15.1636 53.2679C10.6317 54.8818 5.45666 54.2917 0.319258 51.5752L0 51.4064L0.269944 51.8739C0.657745 52.5455 2.59874 54.8767 3.34857 55.5715C5.5988 57.6567 8.32029 59.115 11.0729 59.7109C12.858 60.0972 15.5476 60.0963 17.4159 59.7087C20.7244 59.0223 23.8857 57.2776 26.6219 54.6279C27.6047 53.6763 28.4065 52.7913 30.2299 50.6457C32.2036 48.3233 32.892 47.5663 33.6254 46.9111C35.6835 45.0723 37.763 44.7431 39.7586 45.9403C41.0511 46.7157 41.861 47.664 43.6184 50.4595C45.4807 53.4221 46.8958 55.0295 48.5386 56.0482C51.0609 57.6125 53.5694 57.6294 56.0862 56.099C56.9704 55.5613 57.6083 54.9854 58.432 53.9809C58.9599 53.3373 60.0697 51.5447 59.9966 51.4538C59.9822 51.4359 59.6638 51.5822 59.2891 51.7787C58.4638 52.2115 57.2457 52.6803 56.2934 52.9315C55.7522 53.0743 55.2336 53.1159 54.0556 53.1107C52.6774 53.1048 52.4427 53.0773 51.7349 52.8388C49.5553 52.1043 47.8722 50.7553 45.7681 48.0564C42.9757 44.4749 42.2483 43.6746 40.9883 42.7984C39.033 41.4385 36.4702 40.7919 34.1641 41.0767Z" fill="black"/>
</g>
<defs>
<clipPath id="clip0_25_64">
<rect width="60" height="60" fill="white"/>
</clipPath>
</defs>
</svg>
