<svg width="120" height="120" viewBox="0 0 120 120" fill="none" xmlns="http://www.w3.org/2000/svg">
<g clip-path="url(#clip0_25_62)">
<path fill-rule="evenodd" clip-rule="evenodd" d="M28.3794 0.0220818C28.3794 0.0762974 28.8913 1.4554 29.5167 3.0864C32.6053 11.14 34.0175 18.8029 34.5078 30.1707C34.7167 35.0165 34.719 46.7526 34.5129 56.4539C34.2623 68.2503 34.6923 72.35 36.7075 77.3775C39.05 83.2218 44.0547 87.5906 49.9057 88.8988L50.4631 89.0235L49.4505 87.6774C47.9841 85.7279 47.1905 83.5275 46.7612 80.2216C46.483 78.079 46.5137 71.887 46.8419 63.9782C47.5167 47.7122 47.5553 41.3558 47.0096 36.355C46.0401 27.4688 43.4088 19.6947 38.8506 12.2499C37.2925 9.70504 32.6125 3.81594 30.7001 1.99405C29.1785 0.54445 28.3794 -0.134587 28.3794 0.0220818ZM68.3282 82.1534C63.1198 82.7963 58.6745 84.8885 53.4225 89.1684C51.5036 90.732 51.2046 91.0033 46.2163 95.7079C39.8528 101.709 35.4445 104.713 30.3271 106.536C21.2634 109.764 10.9133 108.583 0.638516 103.15L0 102.813L0.539887 103.748C1.31549 105.091 5.19748 109.753 6.69714 111.143C11.1976 115.313 16.6406 118.23 22.1457 119.422C25.7159 120.194 31.0952 120.193 34.8317 119.417C41.4488 118.045 47.7713 114.555 53.2438 109.256C55.2094 107.353 56.813 105.583 60.4598 101.291C64.4072 96.6467 65.7839 95.1326 67.2507 93.8221C71.367 90.1445 75.5259 89.4863 79.5172 91.8806C82.1022 93.4315 83.7219 95.328 87.2367 100.919C90.9614 106.844 93.7917 110.059 97.0772 112.096C102.122 115.225 107.139 115.259 112.172 112.198C113.941 111.123 115.217 109.971 116.864 107.962C117.92 106.675 120.139 103.089 119.993 102.908C119.964 102.872 119.328 103.164 118.578 103.557C116.928 104.423 114.491 105.361 112.587 105.863C111.504 106.149 110.467 106.232 108.111 106.221C105.355 106.21 104.885 106.155 103.47 105.678C99.1106 104.209 95.7444 101.511 91.5361 96.1128C85.9514 88.9497 84.4965 87.3492 81.9766 85.5968C78.0659 82.8769 72.9404 81.5838 68.3282 82.1534Z" fill="black"/>
</g>
<defs>
<clipPath id="clip0_25_62">
<rect width="120" height="120" fill="white"/>
</clipPath>
</defs>
</svg>
