<svg width="32" height="32" viewBox="0 0 32 32" fill="none" xmlns="http://www.w3.org/2000/svg">
<path d="M24 6.66667H29.3333M26.6667 4V9.33333M27.98 16.648C27.855 18.9629 27.0622 21.192 25.6974 23.0659C24.3326 24.9398 22.4542 26.3782 20.2894 27.2074C18.1245 28.0365 15.7658 28.2208 13.4984 27.738C11.231 27.2553 9.15193 26.126 7.51261 24.4869C5.87328 22.8477 4.74384 20.7688 4.26081 18.5015C3.77779 16.2341 3.96185 13.8754 4.79076 11.7104C5.61967 9.54545 7.05794 7.66692 8.93169 6.30191C10.8054 4.93691 13.0345 4.14387 15.3493 4.01867C15.8893 3.98933 16.172 4.632 15.8853 5.08933C14.9265 6.6234 14.516 8.43716 14.7207 10.2346C14.9254 12.032 15.7332 13.707 17.0124 14.9862C18.2916 16.2654 19.9666 17.0733 21.7641 17.278C23.5615 17.4827 25.3753 17.0721 26.9093 16.1133C27.368 15.8267 28.0093 16.108 27.98 16.648Z" stroke="black" stroke-width="2" stroke-linecap="round" stroke-linejoin="round"/>
</svg>
