<svg width="32" height="32" viewBox="0 0 32 32" fill="none" xmlns="http://www.w3.org/2000/svg">
<path d="M8.00002 10.6667L10.3334 27.04C10.4239 27.6807 10.7444 28.2667 11.235 28.6886C11.7256 29.1106 12.3529 29.3397 13 29.3333H19.0534C19.7004 29.3397 20.3277 29.1106 20.8184 28.6886C21.309 28.2667 21.6295 27.6807 21.72 27.04L24 10.6667M6.66669 10.6667H25.3334M9.33335 20C10.389 19.5577 11.5221 19.33 12.6667 19.33C13.8112 19.33 14.9444 19.5577 16 20C17.0557 20.4422 18.1888 20.67 19.3334 20.67C20.4779 20.67 21.611 20.4422 22.6667 20M16 10.6667L17.3334 2.66666H20" stroke="black" stroke-width="2" stroke-linecap="round" stroke-linejoin="round"/>
</svg>
