<svg width="32" height="32" viewBox="0 0 32 32" fill="none" xmlns="http://www.w3.org/2000/svg">
<path d="M13.3333 13.3333V23.8667M15.736 8.19334C16.8505 7.91808 18.0172 7.93529 19.1232 8.24331C20.2291 8.55133 21.2367 9.13972 22.0485 9.95149C22.8603 10.7633 23.4487 11.7709 23.7567 12.8768C24.0647 13.9828 24.0819 15.1495 23.8067 16.264M18.6667 8.13334V11.124M20.6667 20.7613L19.3813 22.0467C18.1311 23.2969 16.4354 23.9992 14.6673 23.9992C12.8992 23.9992 11.2036 23.2969 9.95332 22.0467C8.70352 20.7965 8.00141 19.1011 8.00141 17.3333C8.00141 15.5656 8.70352 13.8702 9.95332 12.62L11.2387 11.3333M21.3333 9.33334V4.00001C21.3334 3.73634 21.4116 3.47861 21.5581 3.25939C21.7046 3.04018 21.9129 2.86933 22.1564 2.76843C22.4 2.66754 22.6681 2.64114 22.9267 2.69256C23.1853 2.74398 23.4229 2.87093 23.6093 3.05734C23.9783 3.43163 24.4307 3.71335 24.9293 3.87949C25.428 4.04564 25.9589 4.0915 26.4787 4.01334C26.6835 3.98417 26.8923 4.00307 27.0886 4.06853C27.2848 4.134 27.4632 4.24425 27.6094 4.39054C27.7557 4.53684 27.866 4.71518 27.9315 4.91144C27.9969 5.1077 28.0158 5.31651 27.9867 5.52134C27.9085 6.04111 27.9544 6.572 28.1205 7.07067C28.2866 7.56934 28.5684 8.02165 28.9427 8.39067C29.1291 8.57714 29.256 8.81469 29.3074 9.0733C29.3589 9.3319 29.3325 9.59995 29.2316 9.84354C29.1307 10.0871 28.9598 10.2954 28.7406 10.4419C28.5214 10.5884 28.2637 10.6666 28 10.6667H22.6667M2.66666 2.66667L29.3333 29.3333M10.6667 22.6667V28C10.6666 28.2637 10.5884 28.5214 10.4419 28.7406C10.2953 28.9598 10.0871 29.1307 9.84353 29.2316C9.59993 29.3325 9.33188 29.3589 9.07328 29.3075C8.81468 29.256 8.57713 29.1291 8.39066 28.9427C8.02163 28.5684 7.56932 28.2867 7.07065 28.1205C6.57199 27.9544 6.0411 27.9085 5.52132 27.9867C5.31649 28.0158 5.10769 27.9969 4.91142 27.9315C4.71516 27.866 4.53683 27.7558 4.39053 27.6095C4.24423 27.4632 4.13399 27.2848 4.06852 27.0886C4.00305 26.8923 3.98415 26.6835 4.01332 26.4787C4.09148 25.9589 4.04562 25.428 3.87947 24.9293C3.71333 24.4307 3.43161 23.9784 3.05732 23.6093C2.87091 23.4229 2.74397 23.1853 2.69255 22.9267C2.64112 22.6681 2.66753 22.4001 2.76842 22.1565C2.86931 21.9129 3.04017 21.7046 3.25938 21.5581C3.47859 21.4116 3.73632 21.3334 3.99999 21.3333H9.33332" stroke="black" stroke-width="2" stroke-linecap="round" stroke-linejoin="round"/>
</svg>
