<svg width="32" height="32" viewBox="0 0 32 32" fill="none" xmlns="http://www.w3.org/2000/svg">
<path d="M2.66666 26.6667V16C2.66666 15.2928 2.94761 14.6145 3.4477 14.1144C3.9478 13.6143 4.62608 13.3333 5.33332 13.3333M5.33332 13.3333H26.6667M5.33332 13.3333V8.00001C5.33332 7.29277 5.61427 6.61449 6.11437 6.11439C6.61447 5.61429 7.29275 5.33334 7.99999 5.33334H24C24.7072 5.33334 25.3855 5.61429 25.8856 6.11439C26.3857 6.61449 26.6667 7.29277 26.6667 8.00001V13.3333M26.6667 13.3333C27.3739 13.3333 28.0522 13.6143 28.5523 14.1144C29.0524 14.6145 29.3333 15.2928 29.3333 16V26.6667M16 5.33334V13.3333M2.66666 24H29.3333" stroke="black" stroke-width="2" stroke-linecap="round" stroke-linejoin="round"/>
</svg>
