<svg width="32" height="32" viewBox="0 0 32 32" fill="none" xmlns="http://www.w3.org/2000/svg">
<path d="M28 12C28.001 11.5775 27.9184 11.1589 27.7568 10.7685C27.5953 10.3781 27.358 10.0236 27.0587 9.72533L22.2747 4.94133C21.9764 4.64202 21.6219 4.40474 21.2315 4.24317C20.8411 4.08161 20.4225 3.99896 20 3.99999M28 12V25.3333C28 26.0406 27.719 26.7188 27.2189 27.2189C26.7189 27.719 26.0406 28 25.3333 28H6.66667C5.95942 28 5.28115 27.719 4.78105 27.2189C4.28095 26.7188 4 26.0406 4 25.3333V6.66666C4 5.95942 4.28095 5.28114 4.78105 4.78104C5.28115 4.28095 5.95942 3.99999 6.66667 3.99999H20M28 12H21.3333C20.9797 12 20.6406 11.8595 20.3905 11.6095C20.1405 11.3594 20 11.0203 20 10.6667V3.99999M10.6667 17.3333H10.68M21.3333 17.3333H21.3467M13.3333 21.3333C13.3333 21.3333 14.4 22.6667 16 22.6667C17.7333 22.6667 18.6667 21.3333 18.6667 21.3333" stroke="black" stroke-width="2" stroke-linecap="round" stroke-linejoin="round"/>
</svg>
