<svg width="32" height="42" viewBox="0 0 32 42" fill="none" xmlns="http://www.w3.org/2000/svg">
<path d="M8 21C9.15397 19.8641 10.5575 19.25 12 19.25C13.4425 19.25 14.846 19.8641 16 21C17.154 22.1359 18.5575 22.75 20 22.75C21.4425 22.75 22.846 22.1359 24 21M6.82133 7.182C6.80191 6.93825 6.82172 6.69186 6.87946 6.4588C6.93721 6.22573 7.03161 6.01118 7.15655 5.82905C7.2815 5.64692 7.43419 5.50126 7.60475 5.40151C7.77532 5.30176 7.95994 5.25014 8.14667 5.25H23.8533C24.0402 5.25012 24.2249 5.30178 24.3956 5.40163C24.5663 5.50149 24.719 5.64731 24.844 5.82964C24.9689 6.01197 25.0633 6.22673 25.121 6.46001C25.1786 6.69328 25.1983 6.93986 25.1787 7.18375L22.92 35.3675C22.8508 36.2277 22.5414 37.0237 22.0514 37.6022C21.5615 38.1806 20.9257 38.5005 20.2667 38.5H11.7333C11.072 38.5048 10.433 38.1869 9.94019 37.6081C9.44741 37.0292 9.13609 36.2307 9.06667 35.3675L6.82133 7.182Z" stroke="black" stroke-width="2" stroke-linecap="round" stroke-linejoin="round"/>
</svg>
