<svg width="32" height="32" viewBox="0 0 32 32" fill="none" xmlns="http://www.w3.org/2000/svg">
<path d="M20 16C20 18.2091 18.2091 20 16 20M20 16C20 13.7909 18.2091 12 16 12M20 16H22M16 20C13.7909 20 12 18.2091 12 16M16 20V22M12 16C12 13.7909 13.7909 12 16 12M12 16H10M16 12V10M16 22C16 23.1867 15.6481 24.3467 14.9888 25.3334C14.3295 26.3201 13.3925 27.0892 12.2961 27.5433C11.1997 27.9974 9.99335 28.1162 8.82946 27.8847C7.66557 27.6532 6.59648 27.0818 5.75736 26.2426C4.91825 25.4035 4.3468 24.3344 4.11529 23.1705C3.88378 22.0067 4.0026 20.8003 4.45673 19.7039C4.91085 18.6075 5.67989 17.6705 6.66658 17.0112C7.65328 16.3519 8.81331 16 10 16M16 22C16 23.1867 16.3519 24.3467 17.0112 25.3334C17.6705 26.3201 18.6075 27.0892 19.7039 27.5433C20.8003 27.9974 22.0067 28.1162 23.1705 27.8847C24.3344 27.6532 25.4035 27.0818 26.2426 26.2426C27.0818 25.4035 27.6532 24.3344 27.8847 23.1705C28.1162 22.0067 27.9974 20.8003 27.5433 19.7039C27.0892 18.6075 26.3201 17.6705 25.3334 17.0112C24.3467 16.3519 23.1867 16 22 16M10 16C8.81331 16 7.65328 15.6481 6.66658 14.9888C5.67989 14.3295 4.91085 13.3925 4.45673 12.2961C4.0026 11.1997 3.88378 9.99335 4.11529 8.82946C4.3468 7.66557 4.91825 6.59648 5.75736 5.75736C6.59648 4.91825 7.66557 4.3468 8.82946 4.11529C9.99335 3.88378 11.1997 4.0026 12.2961 4.45673C13.3925 4.91085 14.3295 5.67989 14.9888 6.66658C15.6481 7.65328 16 8.81331 16 10M16 10C16 8.81331 16.3519 7.65328 17.0112 6.66658C17.6705 5.67989 18.6075 4.91085 19.7039 4.45673C20.8003 4.0026 22.0067 3.88378 23.1705 4.11529C24.3344 4.3468 25.4035 4.91825 26.2426 5.75736C27.0818 6.59648 27.6532 7.66557 27.8847 8.82946C28.1162 9.99335 27.9974 11.1997 27.5433 12.2961C27.0892 13.3925 26.3201 14.3295 25.3334 14.9888C24.3467 15.6481 23.1867 16 22 16M10.6667 10.6667L13.1733 13.1733M18.8267 13.1733L21.3333 10.6667M10.6667 21.3333L13.1733 18.8267M18.8267 18.8267L21.3333 21.3333" stroke="black" stroke-width="2" stroke-linecap="round" stroke-linejoin="round"/>
</svg>
