<svg width="32" height="32" viewBox="0 0 32 32" fill="none" xmlns="http://www.w3.org/2000/svg">
<path d="M21.3333 22.6667H26.6667M5.33334 17.3333H10.6667M5.33334 21.3333V18.16C5.33334 15.3333 3.96 14 4 10.6667C4.04 7.03999 5.98667 2.66666 10 2.66666C12.4933 2.66666 13.3333 5.06666 13.3333 7.33332C13.3333 11.48 10.6667 14.88 10.6667 18.9067V21.3333C10.6667 22.0406 10.3857 22.7188 9.88562 23.2189C9.38552 23.719 8.70725 24 8 24C7.29276 24 6.61448 23.719 6.11438 23.2189C5.61429 22.7188 5.33334 22.0406 5.33334 21.3333ZM26.6667 26.6667V23.4933C26.6667 20.6667 28.04 19.3333 28 16C27.96 12.3733 26.0133 7.99999 22 7.99999C19.5067 7.99999 18.6667 10.4 18.6667 12.6667C18.6667 16.8133 21.3333 20.2133 21.3333 24.24V26.6667C21.3333 27.3739 21.6143 28.0522 22.1144 28.5523C22.6145 29.0524 23.2928 29.3333 24 29.3333C24.7072 29.3333 25.3855 29.0524 25.8856 28.5523C26.3857 28.0522 26.6667 27.3739 26.6667 26.6667Z" stroke="black" stroke-width="2" stroke-linecap="round" stroke-linejoin="round"/>
</svg>
