<svg width="32" height="32" viewBox="0 0 32 32" fill="none" xmlns="http://www.w3.org/2000/svg">
<path d="M16 16H3.99999C3.64637 16 3.30723 16.1405 3.05718 16.3905C2.80713 16.6406 2.66666 16.9797 2.66666 17.3333V20C2.66666 20.3536 2.80713 20.6928 3.05718 20.9428C3.30723 21.1929 3.64637 21.3333 3.99999 21.3333H21.3333M24 10.6667C24 7.33334 21.3333 7.33334 21.3333 4.00001M2.66666 2.66667L29.3333 29.3333M28 16C28.3536 16 28.6927 16.1405 28.9428 16.3905C29.1928 16.6406 29.3333 16.9797 29.3333 17.3333V20C29.3333 20.234 29.2717 20.464 29.1547 20.6667C29.0377 20.8693 28.8693 21.0376 28.6667 21.1547M29.3333 10.6667C29.3333 7.33334 26.6667 7.33334 26.6667 4.00001M9.33332 16V21.3333" stroke="black" stroke-width="2" stroke-linecap="round" stroke-linejoin="round"/>
</svg>
