<svg width="32" height="32" viewBox="0 0 32 32" fill="none" xmlns="http://www.w3.org/2000/svg">
<path d="M17.3333 17.3333V24M22.6667 15.2933V10.6667M22.6667 14.6667H24C24.6655 14.6666 25.3206 14.8326 25.9058 15.1497C26.491 15.4667 26.9878 15.9248 27.3513 16.4823C27.7147 17.0399 27.9333 17.6793 27.9872 18.3427C28.0411 19.0061 27.9287 19.6724 27.66 20.2813M2.66666 2.66667L29.3333 29.3333M6.66666 10.6667V26.6667C6.66666 27.3739 6.94761 28.0522 7.4477 28.5523C7.9478 29.0524 8.62608 29.3333 9.33332 29.3333H20C20.7072 29.3333 21.3855 29.0524 21.8856 28.5523C22.3857 28.0522 22.6667 27.3739 22.6667 26.6667V22.6667M10.048 10.0467C9.02132 10.1987 8.20532 10.6667 7.33332 10.6667C6.67396 10.6668 6.02937 10.4714 5.4811 10.1051C4.93282 9.73884 4.50548 9.2182 4.25314 8.60903C4.00079 7.99987 3.93478 7.32955 4.06345 6.68287C4.19212 6.03618 4.50969 5.44218 4.97599 4.97601M11.636 4.272C12.408 3.68934 13.18 2.66667 14.6667 2.66667C16.7467 2.66667 17.3333 4.66667 18.6667 4.66667C20 4.66667 20.96 4.00001 22 4.00001C22.884 4.00001 23.7319 4.35119 24.357 4.97632C24.9821 5.60144 25.3333 6.44928 25.3333 7.33334C25.3333 8.21739 24.9821 9.06524 24.357 9.69036C23.7319 10.3155 22.884 10.6667 22 10.6667C20.96 10.6667 20 10 18.6667 10C18.2869 10.0023 17.9093 10.0561 17.544 10.16M12 19.4667V24" stroke="black" stroke-width="2" stroke-linecap="round" stroke-linejoin="round"/>
</svg>
