<svg width="32" height="32" viewBox="0 0 32 32" fill="none" xmlns="http://www.w3.org/2000/svg">
<path d="M9.33333 4V28M5.33333 4H13.3333C14.0697 4 14.6667 4.59695 14.6667 5.33333V26.6667C14.6667 27.403 14.0697 28 13.3333 28H5.33333C4.59695 28 4 27.403 4 26.6667V5.33333C4 4.59695 4.59695 4 5.33333 4ZM27.2 25.2C27.4667 25.8667 27.0667 26.6667 26.4 26.9333L23.8667 27.8667C23.2 28.1333 22.4 27.7333 22.1333 27.0667L14.8 6.8C14.5333 6.13333 14.9333 5.33333 15.6 5.06667L18.1333 4.13333C18.8 3.86667 19.6 4.26667 19.8667 4.93333L27.2 25.2Z" stroke="black" stroke-width="2" stroke-linecap="round" stroke-linejoin="round"/>
</svg>
