<svg width="32" height="32" viewBox="0 0 32 32" fill="none" xmlns="http://www.w3.org/2000/svg">
<path d="M17.3333 24H5.33332C4.62608 24 3.9478 23.719 3.4477 23.219C2.94761 22.7189 2.66666 22.0406 2.66666 21.3333V10.6667C2.66666 9.95942 2.94761 9.28115 3.4477 8.78105C3.9478 8.28095 4.62608 8 5.33332 8H26.6667C27.3739 8 28.0522 8.28095 28.5523 8.78105C29.0524 9.28115 29.3333 9.95942 29.3333 10.6667V17.3333M22.6667 22.6667L29.3333 29.3333M24 16H24.0133M29.3333 22.6667L22.6667 29.3333M7.99999 16H8.01332M18.6667 16C18.6667 17.4728 17.4727 18.6667 16 18.6667C14.5272 18.6667 13.3333 17.4728 13.3333 16C13.3333 14.5272 14.5272 13.3333 16 13.3333C17.4727 13.3333 18.6667 14.5272 18.6667 16Z" stroke="black" stroke-width="2" stroke-linecap="round" stroke-linejoin="round"/>
</svg>
