<svg width="32" height="32" viewBox="0 0 32 32" fill="none" xmlns="http://www.w3.org/2000/svg">
<path d="M2.66666 12.6667C2.66668 11.1829 3.11678 9.73411 3.9575 8.51155C4.79822 7.289 5.99001 6.35021 7.37547 5.8192C8.76092 5.28819 10.2749 5.18993 11.7173 5.53739C13.1598 5.88486 14.463 6.66171 15.4547 7.76534C15.5245 7.84002 15.609 7.89956 15.7028 7.94027C15.7966 7.98098 15.8977 8.00198 16 8.00198C16.1022 8.00198 16.2034 7.98098 16.2972 7.94027C16.391 7.89956 16.4755 7.84002 16.5453 7.76534C17.5339 6.65454 18.8374 5.87116 20.2822 5.51947C21.727 5.16778 23.2446 5.26446 24.6332 5.79665C26.0217 6.32883 27.2152 7.27127 28.0548 8.49854C28.8944 9.7258 29.3404 11.1797 29.3333 12.6667C29.3333 15.72 27.3333 18 25.3333 20L18.0107 27.084C17.7622 27.3693 17.4559 27.5986 17.1121 27.7564C16.7682 27.9143 16.3947 27.9971 16.0164 27.9995C15.638 28.0019 15.2635 27.9238 14.9177 27.7703C14.5719 27.6168 14.2627 27.3915 14.0107 27.1093L6.66666 20C4.66666 18 2.66666 15.7333 2.66666 12.6667Z" stroke="black" stroke-width="2" stroke-linecap="round" stroke-linejoin="round"/>
</svg>
