<svg width="32" height="32" viewBox="0 0 32 32" fill="none" xmlns="http://www.w3.org/2000/svg">
<path d="M16 8.00001V16L20.8587 18.4293M21.3333 25.3333H29.3333M25.3333 21.3333V29.3333M29.2267 17.6893C29.5789 14.9303 29.0595 12.1301 27.7412 9.68095C26.4228 7.23178 24.3715 5.25622 21.8745 4.03089C19.3775 2.80556 16.5598 2.39182 13.8159 2.84759C11.072 3.30336 8.5394 4.60582 6.57261 6.57261C4.60582 8.5394 3.30336 11.072 2.84759 13.8159C2.39182 16.5598 2.80556 19.3775 4.03089 21.8745C5.25622 24.3715 7.23178 26.4228 9.68095 27.7412C12.1301 29.0595 14.9303 29.5789 17.6893 29.2267" stroke="black" stroke-width="2" stroke-linecap="round" stroke-linejoin="round"/>
</svg>
